ISO-10303-21;
HEADER;
/* Generated by software containing ST-Developer
 * from STEP Tools, Inc. (www.steptools.com) 
 */

FILE_DESCRIPTION(
/* description */ (''),
/* implementation_level */ '2;1');

FILE_NAME(
/* name */ '24037_fusion-360-151130-5290-07e58172-untitl_v1.step',
/* time_stamp */ '2026-02-10T10:40:13Z',
/* author */ (''),
/* organization */ (''),
/* preprocessor_version */ 'ST-DEVELOPER v20.1',
/* originating_system */ 'Autodesk Translation Framework v14.24.0.0',
/* authorisation */ '');

FILE_SCHEMA (('AUTOMOTIVE_DESIGN { 1 0 10303 214 3 1 1 }'));
ENDSEC;

DATA;
#10=MECHANICAL_DESIGN_GEOMETRIC_PRESENTATION_REPRESENTATION('',(#13),#576);
#11=SHAPE_REPRESENTATION_RELATIONSHIP('SRR','None',#583,#12);
#12=ADVANCED_BREP_SHAPE_REPRESENTATION('',(#14),#575);
#13=STYLED_ITEM('',(#593),#14);
#14=MANIFOLD_SOLID_BREP('Body1',#332);
#15=FACE_BOUND('',#48,.T.);
#16=FACE_BOUND('',#51,.T.);
#17=FACE_BOUND('',#60,.T.);
#18=FACE_BOUND('',#61,.T.);
#19=FACE_BOUND('',#63,.T.);
#20=FACE_BOUND('',#68,.T.);
#21=PLANE('',#349);
#22=PLANE('',#356);
#23=PLANE('',#369);
#24=PLANE('',#370);
#25=PLANE('',#371);
#26=PLANE('',#374);
#27=PLANE('',#376);
#28=PLANE('',#380);
#29=FACE_OUTER_BOUND('',#46,.T.);
#30=FACE_OUTER_BOUND('',#47,.T.);
#31=FACE_OUTER_BOUND('',#49,.T.);
#32=FACE_OUTER_BOUND('',#50,.T.);
#33=FACE_OUTER_BOUND('',#52,.T.);
#34=FACE_OUTER_BOUND('',#53,.T.);
#35=FACE_OUTER_BOUND('',#54,.T.);
#36=FACE_OUTER_BOUND('',#55,.T.);
#37=FACE_OUTER_BOUND('',#56,.T.);
#38=FACE_OUTER_BOUND('',#57,.T.);
#39=FACE_OUTER_BOUND('',#58,.T.);
#40=FACE_OUTER_BOUND('',#59,.T.);
#41=FACE_OUTER_BOUND('',#62,.T.);
#42=FACE_OUTER_BOUND('',#64,.T.);
#43=FACE_OUTER_BOUND('',#65,.T.);
#44=FACE_OUTER_BOUND('',#66,.T.);
#45=FACE_OUTER_BOUND('',#67,.T.);
#46=EDGE_LOOP('',(#216,#217,#218,#219));
#47=EDGE_LOOP('',(#220,#221,#222,#223,#224,#225));
#48=EDGE_LOOP('',(#226));
#49=EDGE_LOOP('',(#227,#228,#229,#230));
#50=EDGE_LOOP('',(#231,#232,#233,#234,#235,#236));
#51=EDGE_LOOP('',(#237));
#52=EDGE_LOOP('',(#238,#239,#240,#241));
#53=EDGE_LOOP('',(#242,#243,#244,#245));
#54=EDGE_LOOP('',(#246,#247,#248,#249));
#55=EDGE_LOOP('',(#250,#251,#252,#253));
#56=EDGE_LOOP('',(#254,#255,#256,#257));
#57=EDGE_LOOP('',(#258,#259,#260,#261,#262,#263,#264,#265,#266,#267));
#58=EDGE_LOOP('',(#268,#269,#270,#271));
#59=EDGE_LOOP('',(#272,#273,#274,#275));
#60=EDGE_LOOP('',(#276));
#61=EDGE_LOOP('',(#277));
#62=EDGE_LOOP('',(#278,#279,#280,#281));
#63=EDGE_LOOP('',(#282));
#64=EDGE_LOOP('',(#283,#284,#285,#286,#287,#288,#289,#290,#291,#292));
#65=EDGE_LOOP('',(#293,#294,#295,#296));
#66=EDGE_LOOP('',(#297,#298,#299,#300));
#67=EDGE_LOOP('',(#301,#302,#303,#304));
#68=EDGE_LOOP('',(#305));
#69=LINE('',#486,#96);
#70=LINE('',#489,#97);
#71=LINE('',#492,#98);
#72=LINE('',#496,#99);
#73=LINE('',#499,#100);
#74=LINE('',#507,#101);
#75=LINE('',#510,#102);
#76=LINE('',#513,#103);
#77=LINE('',#517,#104);
#78=LINE('',#520,#105);
#79=LINE('',#527,#106);
#80=LINE('',#533,#107);
#81=LINE('',#536,#108);
#82=LINE('',#538,#109);
#83=LINE('',#539,#110);
#84=LINE('',#541,#111);
#85=LINE('',#542,#112);
#86=LINE('',#545,#113);
#87=LINE('',#547,#114);
#88=LINE('',#549,#115);
#89=LINE('',#551,#116);
#90=LINE('',#552,#117);
#91=LINE('',#557,#118);
#92=LINE('',#562,#119);
#93=LINE('',#566,#120);
#94=LINE('',#567,#121);
#95=LINE('',#568,#122);
#96=VECTOR('',#387,10.);
#97=VECTOR('',#390,10.);
#98=VECTOR('',#393,10.);
#99=VECTOR('',#396,10.);
#100=VECTOR('',#399,10.);
#101=VECTOR('',#406,10.);
#102=VECTOR('',#409,10.);
#103=VECTOR('',#412,10.);
#104=VECTOR('',#415,10.);
#105=VECTOR('',#418,10.);
#106=VECTOR('',#425,25.);
#107=VECTOR('',#432,25.);
#108=VECTOR('',#437,25.);
#109=VECTOR('',#440,10.);
#110=VECTOR('',#441,10.);
#111=VECTOR('',#444,10.);
#112=VECTOR('',#445,10.);
#113=VECTOR('',#448,10.);
#114=VECTOR('',#449,10.);
#115=VECTOR('',#450,10.);
#116=VECTOR('',#451,10.);
#117=VECTOR('',#452,10.);
#118=VECTOR('',#457,10.);
#119=VECTOR('',#464,10.);
#120=VECTOR('',#469,10.);
#121=VECTOR('',#470,10.);
#122=VECTOR('',#471,10.);
#123=CIRCLE('',#347,25.);
#124=CIRCLE('',#348,25.);
#125=CIRCLE('',#350,50.);
#126=CIRCLE('',#351,50.);
#127=CIRCLE('',#352,25.);
#128=CIRCLE('',#354,25.);
#129=CIRCLE('',#355,25.);
#130=CIRCLE('',#357,50.);
#131=CIRCLE('',#358,50.);
#132=CIRCLE('',#359,25.);
#133=CIRCLE('',#361,25.);
#134=CIRCLE('',#362,25.);
#135=CIRCLE('',#364,25.);
#136=CIRCLE('',#365,25.);
#137=CIRCLE('',#372,50.);
#138=CIRCLE('',#373,50.);
#139=CIRCLE('',#375,50.);
#140=CIRCLE('',#378,50.);
#141=VERTEX_POINT('',#482);
#142=VERTEX_POINT('',#483);
#143=VERTEX_POINT('',#485);
#144=VERTEX_POINT('',#487);
#145=VERTEX_POINT('',#491);
#146=VERTEX_POINT('',#493);
#147=VERTEX_POINT('',#495);
#148=VERTEX_POINT('',#497);
#149=VERTEX_POINT('',#500);
#150=VERTEX_POINT('',#503);
#151=VERTEX_POINT('',#504);
#152=VERTEX_POINT('',#506);
#153=VERTEX_POINT('',#508);
#154=VERTEX_POINT('',#512);
#155=VERTEX_POINT('',#514);
#156=VERTEX_POINT('',#516);
#157=VERTEX_POINT('',#518);
#158=VERTEX_POINT('',#521);
#159=VERTEX_POINT('',#524);
#160=VERTEX_POINT('',#526);
#161=VERTEX_POINT('',#530);
#162=VERTEX_POINT('',#532);
#163=VERTEX_POINT('',#544);
#164=VERTEX_POINT('',#546);
#165=VERTEX_POINT('',#548);
#166=VERTEX_POINT('',#550);
#167=VERTEX_POINT('',#555);
#168=VERTEX_POINT('',#556);
#169=VERTEX_POINT('',#561);
#170=VERTEX_POINT('',#565);
#171=EDGE_CURVE('',#141,#142,#123,.T.);
#172=EDGE_CURVE('',#142,#143,#69,.T.);
#173=EDGE_CURVE('',#143,#144,#124,.T.);
#174=EDGE_CURVE('',#144,#141,#70,.T.);
#175=EDGE_CURVE('',#142,#145,#71,.T.);
#176=EDGE_CURVE('',#145,#146,#125,.T.);
#177=EDGE_CURVE('',#147,#146,#72,.T.);
#178=EDGE_CURVE('',#147,#148,#126,.T.);
#179=EDGE_CURVE('',#143,#148,#73,.T.);
#180=EDGE_CURVE('',#149,#149,#127,.T.);
#181=EDGE_CURVE('',#150,#151,#128,.T.);
#182=EDGE_CURVE('',#151,#152,#74,.T.);
#183=EDGE_CURVE('',#152,#153,#129,.T.);
#184=EDGE_CURVE('',#153,#150,#75,.T.);
#185=EDGE_CURVE('',#151,#154,#76,.T.);
#186=EDGE_CURVE('',#154,#155,#130,.T.);
#187=EDGE_CURVE('',#156,#155,#77,.T.);
#188=EDGE_CURVE('',#156,#157,#131,.T.);
#189=EDGE_CURVE('',#152,#157,#78,.T.);
#190=EDGE_CURVE('',#158,#158,#132,.T.);
#191=EDGE_CURVE('',#159,#159,#133,.T.);
#192=EDGE_CURVE('',#159,#160,#79,.T.);
#193=EDGE_CURVE('',#160,#160,#134,.T.);
#194=EDGE_CURVE('',#161,#161,#135,.T.);
#195=EDGE_CURVE('',#161,#162,#80,.T.);
#196=EDGE_CURVE('',#162,#162,#136,.T.);
#197=EDGE_CURVE('',#158,#149,#81,.T.);
#198=EDGE_CURVE('',#145,#157,#82,.T.);
#199=EDGE_CURVE('',#146,#156,#83,.T.);
#200=EDGE_CURVE('',#155,#147,#84,.T.);
#201=EDGE_CURVE('',#148,#154,#85,.T.);
#202=EDGE_CURVE('',#163,#141,#86,.T.);
#203=EDGE_CURVE('',#164,#163,#87,.T.);
#204=EDGE_CURVE('',#165,#164,#88,.T.);
#205=EDGE_CURVE('',#165,#166,#89,.T.);
#206=EDGE_CURVE('',#153,#166,#90,.T.);
#207=EDGE_CURVE('',#167,#168,#91,.T.);
#208=EDGE_CURVE('',#165,#168,#137,.T.);
#209=EDGE_CURVE('',#167,#164,#138,.T.);
#210=EDGE_CURVE('',#144,#169,#92,.T.);
#211=EDGE_CURVE('',#169,#163,#139,.T.);
#212=EDGE_CURVE('',#170,#150,#93,.T.);
#213=EDGE_CURVE('',#168,#170,#94,.T.);
#214=EDGE_CURVE('',#167,#169,#95,.T.);
#215=EDGE_CURVE('',#166,#170,#140,.T.);
#216=ORIENTED_EDGE('',*,*,#171,.T.);
#217=ORIENTED_EDGE('',*,*,#172,.T.);
#218=ORIENTED_EDGE('',*,*,#173,.T.);
#219=ORIENTED_EDGE('',*,*,#174,.T.);
#220=ORIENTED_EDGE('',*,*,#172,.F.);
#221=ORIENTED_EDGE('',*,*,#175,.T.);
#222=ORIENTED_EDGE('',*,*,#176,.T.);
#223=ORIENTED_EDGE('',*,*,#177,.F.);
#224=ORIENTED_EDGE('',*,*,#178,.T.);
#225=ORIENTED_EDGE('',*,*,#179,.F.);
#226=ORIENTED_EDGE('',*,*,#180,.T.);
#227=ORIENTED_EDGE('',*,*,#181,.T.);
#228=ORIENTED_EDGE('',*,*,#182,.T.);
#229=ORIENTED_EDGE('',*,*,#183,.T.);
#230=ORIENTED_EDGE('',*,*,#184,.T.);
#231=ORIENTED_EDGE('',*,*,#182,.F.);
#232=ORIENTED_EDGE('',*,*,#185,.T.);
#233=ORIENTED_EDGE('',*,*,#186,.T.);
#234=ORIENTED_EDGE('',*,*,#187,.F.);
#235=ORIENTED_EDGE('',*,*,#188,.T.);
#236=ORIENTED_EDGE('',*,*,#189,.F.);
#237=ORIENTED_EDGE('',*,*,#190,.T.);
#238=ORIENTED_EDGE('',*,*,#191,.F.);
#239=ORIENTED_EDGE('',*,*,#192,.T.);
#240=ORIENTED_EDGE('',*,*,#193,.F.);
#241=ORIENTED_EDGE('',*,*,#192,.F.);
#242=ORIENTED_EDGE('',*,*,#194,.F.);
#243=ORIENTED_EDGE('',*,*,#195,.T.);
#244=ORIENTED_EDGE('',*,*,#196,.F.);
#245=ORIENTED_EDGE('',*,*,#195,.F.);
#246=ORIENTED_EDGE('',*,*,#190,.F.);
#247=ORIENTED_EDGE('',*,*,#197,.T.);
#248=ORIENTED_EDGE('',*,*,#180,.F.);
#249=ORIENTED_EDGE('',*,*,#197,.F.);
#250=ORIENTED_EDGE('',*,*,#176,.F.);
#251=ORIENTED_EDGE('',*,*,#198,.T.);
#252=ORIENTED_EDGE('',*,*,#188,.F.);
#253=ORIENTED_EDGE('',*,*,#199,.F.);
#254=ORIENTED_EDGE('',*,*,#178,.F.);
#255=ORIENTED_EDGE('',*,*,#200,.F.);
#256=ORIENTED_EDGE('',*,*,#186,.F.);
#257=ORIENTED_EDGE('',*,*,#201,.F.);
#258=ORIENTED_EDGE('',*,*,#198,.F.);
#259=ORIENTED_EDGE('',*,*,#175,.F.);
#260=ORIENTED_EDGE('',*,*,#171,.F.);
#261=ORIENTED_EDGE('',*,*,#202,.F.);
#262=ORIENTED_EDGE('',*,*,#203,.F.);
#263=ORIENTED_EDGE('',*,*,#204,.F.);
#264=ORIENTED_EDGE('',*,*,#205,.T.);
#265=ORIENTED_EDGE('',*,*,#206,.F.);
#266=ORIENTED_EDGE('',*,*,#183,.F.);
#267=ORIENTED_EDGE('',*,*,#189,.T.);
#268=ORIENTED_EDGE('',*,*,#199,.T.);
#269=ORIENTED_EDGE('',*,*,#187,.T.);
#270=ORIENTED_EDGE('',*,*,#200,.T.);
#271=ORIENTED_EDGE('',*,*,#177,.T.);
#272=ORIENTED_EDGE('',*,*,#207,.T.);
#273=ORIENTED_EDGE('',*,*,#208,.F.);
#274=ORIENTED_EDGE('',*,*,#204,.T.);
#275=ORIENTED_EDGE('',*,*,#209,.F.);
#276=ORIENTED_EDGE('',*,*,#191,.T.);
#277=ORIENTED_EDGE('',*,*,#194,.T.);
#278=ORIENTED_EDGE('',*,*,#174,.F.);
#279=ORIENTED_EDGE('',*,*,#210,.T.);
#280=ORIENTED_EDGE('',*,*,#211,.T.);
#281=ORIENTED_EDGE('',*,*,#202,.T.);
#282=ORIENTED_EDGE('',*,*,#193,.T.);
#283=ORIENTED_EDGE('',*,*,#201,.T.);
#284=ORIENTED_EDGE('',*,*,#185,.F.);
#285=ORIENTED_EDGE('',*,*,#181,.F.);
#286=ORIENTED_EDGE('',*,*,#212,.F.);
#287=ORIENTED_EDGE('',*,*,#213,.F.);
#288=ORIENTED_EDGE('',*,*,#207,.F.);
#289=ORIENTED_EDGE('',*,*,#214,.T.);
#290=ORIENTED_EDGE('',*,*,#210,.F.);
#291=ORIENTED_EDGE('',*,*,#173,.F.);
#292=ORIENTED_EDGE('',*,*,#179,.T.);
#293=ORIENTED_EDGE('',*,*,#208,.T.);
#294=ORIENTED_EDGE('',*,*,#213,.T.);
#295=ORIENTED_EDGE('',*,*,#215,.F.);
#296=ORIENTED_EDGE('',*,*,#205,.F.);
#297=ORIENTED_EDGE('',*,*,#209,.T.);
#298=ORIENTED_EDGE('',*,*,#203,.T.);
#299=ORIENTED_EDGE('',*,*,#211,.F.);
#300=ORIENTED_EDGE('',*,*,#214,.F.);
#301=ORIENTED_EDGE('',*,*,#184,.F.);
#302=ORIENTED_EDGE('',*,*,#206,.T.);
#303=ORIENTED_EDGE('',*,*,#215,.T.);
#304=ORIENTED_EDGE('',*,*,#212,.T.);
#305=ORIENTED_EDGE('',*,*,#196,.T.);
#306=CYLINDRICAL_SURFACE('',#346,25.);
#307=CYLINDRICAL_SURFACE('',#353,25.);
#308=CYLINDRICAL_SURFACE('',#360,25.);
#309=CYLINDRICAL_SURFACE('',#363,25.);
#310=CYLINDRICAL_SURFACE('',#366,25.);
#311=CYLINDRICAL_SURFACE('',#367,50.);
#312=CYLINDRICAL_SURFACE('',#368,50.);
#313=CYLINDRICAL_SURFACE('',#377,50.);
#314=CYLINDRICAL_SURFACE('',#379,50.);
#315=ADVANCED_FACE('',(#29),#306,.F.);
#316=ADVANCED_FACE('',(#30,#15),#21,.T.);
#317=ADVANCED_FACE('',(#31),#307,.F.);
#318=ADVANCED_FACE('',(#32,#16),#22,.T.);
#319=ADVANCED_FACE('',(#33),#308,.F.);
#320=ADVANCED_FACE('',(#34),#309,.F.);
#321=ADVANCED_FACE('',(#35),#310,.F.);
#322=ADVANCED_FACE('',(#36),#311,.T.);
#323=ADVANCED_FACE('',(#37),#312,.T.);
#324=ADVANCED_FACE('',(#38),#23,.T.);
#325=ADVANCED_FACE('',(#39),#24,.T.);
#326=ADVANCED_FACE('',(#40,#17,#18),#25,.F.);
#327=ADVANCED_FACE('',(#41,#19),#26,.T.);
#328=ADVANCED_FACE('',(#42),#27,.T.);
#329=ADVANCED_FACE('',(#43),#313,.T.);
#330=ADVANCED_FACE('',(#44),#314,.T.);
#331=ADVANCED_FACE('',(#45,#20),#28,.T.);
#332=CLOSED_SHELL('',(#315,#316,#317,#318,#319,#320,#321,#322,#323,#324,
#325,#326,#327,#328,#329,#330,#331));
#333=DERIVED_UNIT_ELEMENT(#335,1.);
#334=DERIVED_UNIT_ELEMENT(#578,-3.);
#335=(
MASS_UNIT()
NAMED_UNIT(*)
SI_UNIT(.KILO.,.GRAM.)
);
#336=DERIVED_UNIT((#333,#334));
#337=MEASURE_REPRESENTATION_ITEM('density measure',
POSITIVE_RATIO_MEASURE(7850.),#336);
#338=PROPERTY_DEFINITION_REPRESENTATION(#343,#340);
#339=PROPERTY_DEFINITION_REPRESENTATION(#344,#341);
#340=REPRESENTATION('material name',(#342),#575);
#341=REPRESENTATION('density',(#337),#575);
#342=DESCRIPTIVE_REPRESENTATION_ITEM('Steel','Steel');
#343=PROPERTY_DEFINITION('material property','material name',#585);
#344=PROPERTY_DEFINITION('material property','density of part',#585);
#345=AXIS2_PLACEMENT_3D('',#480,#381,#382);
#346=AXIS2_PLACEMENT_3D('',#481,#383,#384);
#347=AXIS2_PLACEMENT_3D('',#484,#385,#386);
#348=AXIS2_PLACEMENT_3D('',#488,#388,#389);
#349=AXIS2_PLACEMENT_3D('',#490,#391,#392);
#350=AXIS2_PLACEMENT_3D('',#494,#394,#395);
#351=AXIS2_PLACEMENT_3D('',#498,#397,#398);
#352=AXIS2_PLACEMENT_3D('',#501,#400,#401);
#353=AXIS2_PLACEMENT_3D('',#502,#402,#403);
#354=AXIS2_PLACEMENT_3D('',#505,#404,#405);
#355=AXIS2_PLACEMENT_3D('',#509,#407,#408);
#356=AXIS2_PLACEMENT_3D('',#511,#410,#411);
#357=AXIS2_PLACEMENT_3D('',#515,#413,#414);
#358=AXIS2_PLACEMENT_3D('',#519,#416,#417);
#359=AXIS2_PLACEMENT_3D('',#522,#419,#420);
#360=AXIS2_PLACEMENT_3D('',#523,#421,#422);
#361=AXIS2_PLACEMENT_3D('',#525,#423,#424);
#362=AXIS2_PLACEMENT_3D('',#528,#426,#427);
#363=AXIS2_PLACEMENT_3D('',#529,#428,#429);
#364=AXIS2_PLACEMENT_3D('',#531,#430,#431);
#365=AXIS2_PLACEMENT_3D('',#534,#433,#434);
#366=AXIS2_PLACEMENT_3D('',#535,#435,#436);
#367=AXIS2_PLACEMENT_3D('',#537,#438,#439);
#368=AXIS2_PLACEMENT_3D('',#540,#442,#443);
#369=AXIS2_PLACEMENT_3D('',#543,#446,#447);
#370=AXIS2_PLACEMENT_3D('',#553,#453,#454);
#371=AXIS2_PLACEMENT_3D('',#554,#455,#456);
#372=AXIS2_PLACEMENT_3D('',#558,#458,#459);
#373=AXIS2_PLACEMENT_3D('',#559,#460,#461);
#374=AXIS2_PLACEMENT_3D('',#560,#462,#463);
#375=AXIS2_PLACEMENT_3D('',#563,#465,#466);
#376=AXIS2_PLACEMENT_3D('',#564,#467,#468);
#377=AXIS2_PLACEMENT_3D('',#569,#472,#473);
#378=AXIS2_PLACEMENT_3D('',#570,#474,#475);
#379=AXIS2_PLACEMENT_3D('',#571,#476,#477);
#380=AXIS2_PLACEMENT_3D('',#572,#478,#479);
#381=DIRECTION('axis',(0.,0.,1.));
#382=DIRECTION('refdir',(1.,0.,0.));
#383=DIRECTION('center_axis',(0.,0.,-1.));
#384=DIRECTION('ref_axis',(0.707106781186547,-0.707106781186547,0.));
#385=DIRECTION('center_axis',(5.07530525542929E-17,0.,1.));
#386=DIRECTION('ref_axis',(0.707106781186547,-0.707106781186547,0.));
#387=DIRECTION('',(0.,0.,-1.));
#388=DIRECTION('center_axis',(-5.07530525542929E-17,0.,-1.));
#389=DIRECTION('ref_axis',(0.707106781186547,-0.707106781186547,0.));
#390=DIRECTION('',(0.,0.,1.));
#391=DIRECTION('center_axis',(-1.,0.,0.));
#392=DIRECTION('ref_axis',(0.,0.,1.));
#393=DIRECTION('',(0.,1.,0.));
#394=DIRECTION('center_axis',(-1.,0.,0.));
#395=DIRECTION('ref_axis',(0.,0.,-1.));
#396=DIRECTION('',(0.,0.,1.));
#397=DIRECTION('center_axis',(-1.,0.,0.));
#398=DIRECTION('ref_axis',(0.,0.,-1.));
#399=DIRECTION('',(0.,1.,0.));
#400=DIRECTION('center_axis',(1.,0.,0.));
#401=DIRECTION('ref_axis',(0.,0.,-1.));
#402=DIRECTION('center_axis',(0.,0.,1.));
#403=DIRECTION('ref_axis',(-0.707106781186547,-0.707106781186547,0.));
#404=DIRECTION('center_axis',(-5.07530525542929E-17,0.,-1.));
#405=DIRECTION('ref_axis',(-0.707106781186547,-0.707106781186547,0.));
#406=DIRECTION('',(0.,0.,1.));
#407=DIRECTION('center_axis',(5.07530525542929E-17,0.,1.));
#408=DIRECTION('ref_axis',(-0.707106781186547,-0.707106781186547,0.));
#409=DIRECTION('',(0.,0.,-1.));
#410=DIRECTION('center_axis',(1.,0.,0.));
#411=DIRECTION('ref_axis',(0.,0.,-1.));
#412=DIRECTION('',(0.,1.,0.));
#413=DIRECTION('center_axis',(1.,0.,0.));
#414=DIRECTION('ref_axis',(0.,0.,-1.));
#415=DIRECTION('',(0.,0.,-1.));
#416=DIRECTION('center_axis',(1.,0.,0.));
#417=DIRECTION('ref_axis',(0.,0.,-1.));
#418=DIRECTION('',(0.,1.,0.));
#419=DIRECTION('center_axis',(-1.,0.,0.));
#420=DIRECTION('ref_axis',(0.,0.,-1.));
#421=DIRECTION('center_axis',(0.,1.,0.));
#422=DIRECTION('ref_axis',(1.,0.,0.));
#423=DIRECTION('center_axis',(0.,1.,0.));
#424=DIRECTION('ref_axis',(1.,0.,0.));
#425=DIRECTION('',(0.,1.,0.));
#426=DIRECTION('center_axis',(0.,-1.,0.));
#427=DIRECTION('ref_axis',(1.,0.,0.));
#428=DIRECTION('center_axis',(0.,1.,0.));
#429=DIRECTION('ref_axis',(1.,0.,0.));
#430=DIRECTION('center_axis',(0.,1.,0.));
#431=DIRECTION('ref_axis',(1.,0.,0.));
#432=DIRECTION('',(0.,1.,0.));
#433=DIRECTION('center_axis',(0.,-1.,0.));
#434=DIRECTION('ref_axis',(1.,0.,0.));
#435=DIRECTION('center_axis',(-1.,0.,0.));
#436=DIRECTION('ref_axis',(0.,0.,-1.));
#437=DIRECTION('',(-1.,0.,0.));
#438=DIRECTION('center_axis',(-1.,0.,0.));
#439=DIRECTION('ref_axis',(0.,0.,-1.));
#440=DIRECTION('',(1.,0.,0.));
#441=DIRECTION('',(1.,0.,0.));
#442=DIRECTION('center_axis',(-1.,0.,0.));
#443=DIRECTION('ref_axis',(0.,0.,-1.));
#444=DIRECTION('',(-1.,0.,0.));
#445=DIRECTION('',(1.,0.,0.));
#446=DIRECTION('center_axis',(5.07530525542929E-17,0.,1.));
#447=DIRECTION('ref_axis',(1.,0.,-5.07530525542929E-17));
#448=DIRECTION('',(1.,0.,-5.07530525542929E-17));
#449=DIRECTION('',(0.,1.,0.));
#450=DIRECTION('',(-1.,0.,5.07530525542929E-17));
#451=DIRECTION('',(0.,1.,0.));
#452=DIRECTION('',(1.,0.,-5.07530525542929E-17));
#453=DIRECTION('center_axis',(0.,1.,0.));
#454=DIRECTION('ref_axis',(0.,0.,1.));
#455=DIRECTION('center_axis',(0.,1.,0.));
#456=DIRECTION('ref_axis',(1.,0.,0.));
#457=DIRECTION('',(1.,0.,-5.07530525542929E-17));
#458=DIRECTION('center_axis',(0.,1.,0.));
#459=DIRECTION('ref_axis',(0.,0.,1.));
#460=DIRECTION('center_axis',(0.,1.,0.));
#461=DIRECTION('ref_axis',(0.,0.,-1.));
#462=DIRECTION('center_axis',(0.,1.,0.));
#463=DIRECTION('ref_axis',(1.,0.,0.));
#464=DIRECTION('',(-1.,0.,5.07530525542929E-17));
#465=DIRECTION('center_axis',(0.,1.,0.));
#466=DIRECTION('ref_axis',(0.,0.,-1.));
#467=DIRECTION('center_axis',(-5.07530525542929E-17,0.,-1.));
#468=DIRECTION('ref_axis',(-1.,0.,5.07530525542929E-17));
#469=DIRECTION('',(-1.,0.,5.07530525542929E-17));
#470=DIRECTION('',(0.,1.,0.));
#471=DIRECTION('',(0.,1.,0.));
#472=DIRECTION('center_axis',(0.,1.,0.));
#473=DIRECTION('ref_axis',(0.,0.,1.));
#474=DIRECTION('center_axis',(0.,1.,0.));
#475=DIRECTION('ref_axis',(0.,0.,1.));
#476=DIRECTION('center_axis',(0.,1.,0.));
#477=DIRECTION('ref_axis',(0.,0.,-1.));
#478=DIRECTION('center_axis',(0.,1.,0.));
#479=DIRECTION('ref_axis',(1.,0.,0.));
#480=CARTESIAN_POINT('',(0.,0.,0.));
#481=CARTESIAN_POINT('Origin',(-37.5,50.,-25.));
#482=CARTESIAN_POINT('',(-37.5,25.,50.));
#483=CARTESIAN_POINT('',(-12.5,50.,50.));
#484=CARTESIAN_POINT('Origin',(-37.5,50.,50.));
#485=CARTESIAN_POINT('',(-12.5,50.,-50.));
#486=CARTESIAN_POINT('',(-12.5,50.,-25.));
#487=CARTESIAN_POINT('',(-37.5,25.,-50.));
#488=CARTESIAN_POINT('Origin',(-37.5,50.,-50.));
#489=CARTESIAN_POINT('',(-37.5,25.,-25.));
#490=CARTESIAN_POINT('Origin',(-12.5,0.,-50.));
#491=CARTESIAN_POINT('',(-12.5,100.392544558496,50.));
#492=CARTESIAN_POINT('',(-12.5,0.,50.));
#493=CARTESIAN_POINT('',(-12.5,150.,6.25302843582151));
#494=CARTESIAN_POINT('Origin',(-12.5,100.392544558496,0.));
#495=CARTESIAN_POINT('',(-12.5,150.,-6.25302843582147));
#496=CARTESIAN_POINT('',(-12.5,150.,50.));
#497=CARTESIAN_POINT('',(-12.5,100.392544558496,-50.));
#498=CARTESIAN_POINT('Origin',(-12.5,100.392544558496,0.));
#499=CARTESIAN_POINT('',(-12.5,0.,-50.));
#500=CARTESIAN_POINT('',(-12.5,100.,25.));
#501=CARTESIAN_POINT('Origin',(-12.5,100.,0.));
#502=CARTESIAN_POINT('Origin',(37.5,50.,25.));
#503=CARTESIAN_POINT('',(37.5,25.,-50.));
#504=CARTESIAN_POINT('',(12.5,50.,-50.));
#505=CARTESIAN_POINT('Origin',(37.5,50.,-50.));
#506=CARTESIAN_POINT('',(12.5,50.,50.));
#507=CARTESIAN_POINT('',(12.5,50.,25.));
#508=CARTESIAN_POINT('',(37.5,25.,50.));
#509=CARTESIAN_POINT('Origin',(37.5,50.,50.));
#510=CARTESIAN_POINT('',(37.5,25.,25.));
#511=CARTESIAN_POINT('Origin',(12.5,0.,50.));
#512=CARTESIAN_POINT('',(12.5,100.392544558496,-50.));
#513=CARTESIAN_POINT('',(12.5,0.,-50.));
#514=CARTESIAN_POINT('',(12.5,150.,-6.25302843582147));
#515=CARTESIAN_POINT('Origin',(12.5,100.392544558496,0.));
#516=CARTESIAN_POINT('',(12.5,150.,6.25302843582151));
#517=CARTESIAN_POINT('',(12.5,150.,-50.));
#518=CARTESIAN_POINT('',(12.5,100.392544558496,50.));
#519=CARTESIAN_POINT('Origin',(12.5,100.392544558496,0.));
#520=CARTESIAN_POINT('',(12.5,0.,50.));
#521=CARTESIAN_POINT('',(12.5,100.,25.));
#522=CARTESIAN_POINT('Origin',(12.5,100.,0.));
#523=CARTESIAN_POINT('Origin',(-87.5,0.,4.44089209850063E-15));
#524=CARTESIAN_POINT('',(-112.5,0.,7.50250909636901E-15));
#525=CARTESIAN_POINT('Origin',(-87.5,0.,4.44089209850063E-15));
#526=CARTESIAN_POINT('',(-112.5,25.,1.37927510063224E-15));
#527=CARTESIAN_POINT('',(-112.5,0.,7.50250909636901E-15));
#528=CARTESIAN_POINT('Origin',(-87.5,25.,4.44089209850063E-15));
#529=CARTESIAN_POINT('Origin',(87.5,0.,-3.33066907387547E-15));
#530=CARTESIAN_POINT('',(62.5,0.,-2.69052076007086E-16));
#531=CARTESIAN_POINT('Origin',(87.5,0.,-3.33066907387547E-15));
#532=CARTESIAN_POINT('',(62.5,25.,-6.39228607174385E-15));
#533=CARTESIAN_POINT('',(62.5,0.,-2.69052076007086E-16));
#534=CARTESIAN_POINT('Origin',(87.5,25.,-3.33066907387547E-15));
#535=CARTESIAN_POINT('Origin',(12.5,100.,0.));
#536=CARTESIAN_POINT('',(12.5,100.,25.));
#537=CARTESIAN_POINT('Origin',(12.5,100.392544558496,0.));
#538=CARTESIAN_POINT('',(12.5,100.392544558496,50.));
#539=CARTESIAN_POINT('',(12.5,150.,6.25302843582156));
#540=CARTESIAN_POINT('Origin',(12.5,100.392544558496,0.));
#541=CARTESIAN_POINT('',(12.5,150.,-6.25302843582156));
#542=CARTESIAN_POINT('',(12.5,100.392544558496,-50.));
#543=CARTESIAN_POINT('Origin',(-87.5,0.,50.));
#544=CARTESIAN_POINT('',(-87.5,25.,50.));
#545=CARTESIAN_POINT('',(87.5,25.,50.));
#546=CARTESIAN_POINT('',(-87.5,0.,50.));
#547=CARTESIAN_POINT('',(-87.5,0.,50.));
#548=CARTESIAN_POINT('',(87.5,0.,50.));
#549=CARTESIAN_POINT('',(87.5,0.,50.));
#550=CARTESIAN_POINT('',(87.5,25.,50.));
#551=CARTESIAN_POINT('',(87.5,0.,50.));
#552=CARTESIAN_POINT('',(87.5,25.,50.));
#553=CARTESIAN_POINT('Origin',(-2.22044604925031E-15,150.,0.));
#554=CARTESIAN_POINT('Origin',(-1.77635683940025E-14,0.,0.));
#555=CARTESIAN_POINT('',(-87.5,0.,-50.));
#556=CARTESIAN_POINT('',(87.5,0.,-50.));
#557=CARTESIAN_POINT('',(-87.5,0.,-50.));
#558=CARTESIAN_POINT('Origin',(87.5,0.,-3.33066907387547E-15));
#559=CARTESIAN_POINT('Origin',(-87.5,0.,4.44089209850063E-15));
#560=CARTESIAN_POINT('Origin',(-1.77635683940025E-14,25.,0.));
#561=CARTESIAN_POINT('',(-87.5,25.,-50.));
#562=CARTESIAN_POINT('',(-87.5,25.,-50.));
#563=CARTESIAN_POINT('Origin',(-87.5,25.,4.44089209850063E-15));
#564=CARTESIAN_POINT('Origin',(87.5,0.,-50.));
#565=CARTESIAN_POINT('',(87.5,25.,-50.));
#566=CARTESIAN_POINT('',(-87.5,25.,-50.));
#567=CARTESIAN_POINT('',(87.5,0.,-50.));
#568=CARTESIAN_POINT('',(-87.5,0.,-50.));
#569=CARTESIAN_POINT('Origin',(87.5,0.,-3.33066907387547E-15));
#570=CARTESIAN_POINT('Origin',(87.5,25.,-3.33066907387547E-15));
#571=CARTESIAN_POINT('Origin',(-87.5,0.,4.44089209850063E-15));
#572=CARTESIAN_POINT('Origin',(-1.77635683940025E-14,25.,0.));
#573=UNCERTAINTY_MEASURE_WITH_UNIT(LENGTH_MEASURE(0.01),#577,
'DISTANCE_ACCURACY_VALUE',
'Maximum model space distance between geometric entities at asserted c
onnectivities');
#574=UNCERTAINTY_MEASURE_WITH_UNIT(LENGTH_MEASURE(0.01),#577,
'DISTANCE_ACCURACY_VALUE',
'Maximum model space distance between geometric entities at asserted c
onnectivities');
#575=(
GEOMETRIC_REPRESENTATION_CONTEXT(3)
GLOBAL_UNCERTAINTY_ASSIGNED_CONTEXT((#573))
GLOBAL_UNIT_ASSIGNED_CONTEXT((#577,#579,#580))
REPRESENTATION_CONTEXT('','3D')
);
#576=(
GEOMETRIC_REPRESENTATION_CONTEXT(3)
GLOBAL_UNCERTAINTY_ASSIGNED_CONTEXT((#574))
GLOBAL_UNIT_ASSIGNED_CONTEXT((#577,#579,#580))
REPRESENTATION_CONTEXT('','3D')
);
#577=(
LENGTH_UNIT()
NAMED_UNIT(*)
SI_UNIT(.MILLI.,.METRE.)
);
#578=(
LENGTH_UNIT()
NAMED_UNIT(*)
SI_UNIT($,.METRE.)
);
#579=(
NAMED_UNIT(*)
PLANE_ANGLE_UNIT()
SI_UNIT($,.RADIAN.)
);
#580=(
NAMED_UNIT(*)
SI_UNIT($,.STERADIAN.)
SOLID_ANGLE_UNIT()
);
#581=SHAPE_DEFINITION_REPRESENTATION(#582,#583);
#582=PRODUCT_DEFINITION_SHAPE('',$,#585);
#583=SHAPE_REPRESENTATION('',(#345),#575);
#584=PRODUCT_DEFINITION_CONTEXT('part definition',#589,'design');
#585=PRODUCT_DEFINITION('Untitled','Untitled',#586,#584);
#586=PRODUCT_DEFINITION_FORMATION('',$,#591);
#587=PRODUCT_RELATED_PRODUCT_CATEGORY('Untitled','Untitled',(#591));
#588=APPLICATION_PROTOCOL_DEFINITION('international standard',
'automotive_design',2009,#589);
#589=APPLICATION_CONTEXT(
'Core Data for Automotive Mechanical Design Process');
#590=PRODUCT_CONTEXT('part definition',#589,'mechanical');
#591=PRODUCT('Untitled','Untitled',$,(#590));
#592=PRESENTATION_STYLE_ASSIGNMENT((#594));
#593=PRESENTATION_STYLE_ASSIGNMENT((#595));
#594=SURFACE_STYLE_USAGE(.BOTH.,#596);
#595=SURFACE_STYLE_USAGE(.BOTH.,#597);
#596=SURFACE_SIDE_STYLE('',(#598));
#597=SURFACE_SIDE_STYLE('',(#599));
#598=SURFACE_STYLE_FILL_AREA(#600);
#599=SURFACE_STYLE_FILL_AREA(#601);
#600=FILL_AREA_STYLE('Steel - Satin',(#602));
#601=FILL_AREA_STYLE('Iron - Polished',(#603));
#602=FILL_AREA_STYLE_COLOUR('Steel - Satin',#604);
#603=FILL_AREA_STYLE_COLOUR('Iron - Polished',#605);
#604=COLOUR_RGB('Steel - Satin',0.627450980392157,0.627450980392157,0.627450980392157);
#605=COLOUR_RGB('Iron - Polished',0.749019607843137,0.741176470588235,0.733333333333333);
ENDSEC;
END-ISO-10303-21;
