ISO-10303-21;
HEADER;
/* Generated by software containing ST-Developer
 * from STEP Tools, Inc. (www.steptools.com) 
 */

FILE_DESCRIPTION(
/* description */ (''),
/* implementation_level */ '2;1');

FILE_NAME(
/* name */ '41128_ee74f244_267cc67a-05bb-11ec-bc44-02030dc36019.step',
/* time_stamp */ '2026-02-10T10:25:55Z',
/* author */ (''),
/* organization */ (''),
/* preprocessor_version */ 'ST-DEVELOPER v20.1',
/* originating_system */ 'Autodesk Translation Framework v14.24.0.0',
/* authorisation */ '');

FILE_SCHEMA (('AUTOMOTIVE_DESIGN { 1 0 10303 214 3 1 1 }'));
ENDSEC;

DATA;
#10=MECHANICAL_DESIGN_GEOMETRIC_PRESENTATION_REPRESENTATION('',(#13),#384);
#11=SHAPE_REPRESENTATION_RELATIONSHIP('SRR','None',#391,#12);
#12=ADVANCED_BREP_SHAPE_REPRESENTATION('',(#14),#383);
#13=STYLED_ITEM('',(#401),#14);
#14=MANIFOLD_SOLID_BREP('Body1',#224);
#15=FACE_BOUND('',#51,.T.);
#16=FACE_BOUND('',#54,.T.);
#17=FACE_BOUND('',#60,.T.);
#18=FACE_BOUND('',#61,.T.);
#19=FACE_BOUND('',#63,.T.);
#20=FACE_BOUND('',#64,.T.);
#21=CIRCLE('',#242,0.43561);
#22=CIRCLE('',#243,0.43561);
#23=CIRCLE('',#245,0.27686);
#24=CIRCLE('',#247,0.43561);
#25=CIRCLE('',#248,0.43561);
#26=CIRCLE('',#250,0.27686);
#27=CIRCLE('',#252,0.27686);
#28=CIRCLE('',#254,0.27686);
#29=CYLINDRICAL_SURFACE('',#241,0.43561);
#30=CYLINDRICAL_SURFACE('',#246,0.43561);
#31=CYLINDRICAL_SURFACE('',#251,0.27686);
#32=CYLINDRICAL_SURFACE('',#253,0.27686);
#33=FACE_OUTER_BOUND('',#46,.T.);
#34=FACE_OUTER_BOUND('',#47,.T.);
#35=FACE_OUTER_BOUND('',#48,.T.);
#36=FACE_OUTER_BOUND('',#49,.T.);
#37=FACE_OUTER_BOUND('',#50,.T.);
#38=FACE_OUTER_BOUND('',#52,.T.);
#39=FACE_OUTER_BOUND('',#53,.T.);
#40=FACE_OUTER_BOUND('',#55,.T.);
#41=FACE_OUTER_BOUND('',#56,.T.);
#42=FACE_OUTER_BOUND('',#57,.T.);
#43=FACE_OUTER_BOUND('',#58,.T.);
#44=FACE_OUTER_BOUND('',#59,.T.);
#45=FACE_OUTER_BOUND('',#62,.T.);
#46=EDGE_LOOP('',(#148,#149,#150,#151));
#47=EDGE_LOOP('',(#152,#153,#154,#155));
#48=EDGE_LOOP('',(#156,#157,#158,#159,#160));
#49=EDGE_LOOP('',(#161,#162,#163,#164));
#50=EDGE_LOOP('',(#165));
#51=EDGE_LOOP('',(#166));
#52=EDGE_LOOP('',(#167,#168,#169,#170));
#53=EDGE_LOOP('',(#171));
#54=EDGE_LOOP('',(#172));
#55=EDGE_LOOP('',(#173,#174,#175,#176));
#56=EDGE_LOOP('',(#177,#178,#179,#180));
#57=EDGE_LOOP('',(#181,#182,#183,#184,#185));
#58=EDGE_LOOP('',(#186,#187,#188,#189));
#59=EDGE_LOOP('',(#190,#191,#192,#193));
#60=EDGE_LOOP('',(#194));
#61=EDGE_LOOP('',(#195));
#62=EDGE_LOOP('',(#196,#197,#198,#199));
#63=EDGE_LOOP('',(#200));
#64=EDGE_LOOP('',(#201));
#65=LINE('',#326,#84);
#66=LINE('',#328,#85);
#67=LINE('',#330,#86);
#68=LINE('',#331,#87);
#69=LINE('',#334,#88);
#70=LINE('',#336,#89);
#71=LINE('',#337,#90);
#72=LINE('',#340,#91);
#73=LINE('',#342,#92);
#74=LINE('',#343,#93);
#75=LINE('',#348,#94);
#76=LINE('',#357,#95);
#77=LINE('',#364,#96);
#78=LINE('',#368,#97);
#79=LINE('',#372,#98);
#80=LINE('',#374,#99);
#81=LINE('',#375,#100);
#82=LINE('',#377,#101);
#83=LINE('',#378,#102);
#84=VECTOR('',#263,1.);
#85=VECTOR('',#264,1.);
#86=VECTOR('',#265,1.);
#87=VECTOR('',#266,1.);
#88=VECTOR('',#269,1.);
#89=VECTOR('',#270,1.);
#90=VECTOR('',#271,1.);
#91=VECTOR('',#274,1.);
#92=VECTOR('',#275,1.);
#93=VECTOR('',#276,1.);
#94=VECTOR('',#281,0.43561);
#95=VECTOR('',#292,0.43561);
#96=VECTOR('',#301,0.27686);
#97=VECTOR('',#306,0.27686);
#98=VECTOR('',#311,1.);
#99=VECTOR('',#312,1.);
#100=VECTOR('',#313,1.);
#101=VECTOR('',#316,1.);
#102=VECTOR('',#317,1.);
#103=VERTEX_POINT('',#324);
#104=VERTEX_POINT('',#325);
#105=VERTEX_POINT('',#327);
#106=VERTEX_POINT('',#329);
#107=VERTEX_POINT('',#333);
#108=VERTEX_POINT('',#335);
#109=VERTEX_POINT('',#339);
#110=VERTEX_POINT('',#341);
#111=VERTEX_POINT('',#345);
#112=VERTEX_POINT('',#347);
#113=VERTEX_POINT('',#351);
#114=VERTEX_POINT('',#354);
#115=VERTEX_POINT('',#356);
#116=VERTEX_POINT('',#360);
#117=VERTEX_POINT('',#363);
#118=VERTEX_POINT('',#367);
#119=VERTEX_POINT('',#371);
#120=VERTEX_POINT('',#373);
#121=EDGE_CURVE('',#103,#104,#65,.T.);
#122=EDGE_CURVE('',#104,#105,#66,.T.);
#123=EDGE_CURVE('',#105,#106,#67,.T.);
#124=EDGE_CURVE('',#106,#103,#68,.T.);
#125=EDGE_CURVE('',#106,#107,#69,.T.);
#126=EDGE_CURVE('',#108,#107,#70,.T.);
#127=EDGE_CURVE('',#103,#108,#71,.T.);
#128=EDGE_CURVE('',#109,#105,#72,.T.);
#129=EDGE_CURVE('',#109,#110,#73,.T.);
#130=EDGE_CURVE('',#107,#110,#74,.T.);
#131=EDGE_CURVE('',#111,#111,#21,.T.);
#132=EDGE_CURVE('',#111,#112,#75,.T.);
#133=EDGE_CURVE('',#112,#112,#22,.T.);
#134=EDGE_CURVE('',#113,#113,#23,.T.);
#135=EDGE_CURVE('',#114,#114,#24,.T.);
#136=EDGE_CURVE('',#114,#115,#76,.T.);
#137=EDGE_CURVE('',#115,#115,#25,.T.);
#138=EDGE_CURVE('',#116,#116,#26,.T.);
#139=EDGE_CURVE('',#113,#117,#77,.T.);
#140=EDGE_CURVE('',#117,#117,#27,.T.);
#141=EDGE_CURVE('',#116,#118,#78,.T.);
#142=EDGE_CURVE('',#118,#118,#28,.T.);
#143=EDGE_CURVE('',#119,#108,#79,.T.);
#144=EDGE_CURVE('',#120,#119,#80,.T.);
#145=EDGE_CURVE('',#104,#120,#81,.T.);
#146=EDGE_CURVE('',#120,#109,#82,.T.);
#147=EDGE_CURVE('',#110,#119,#83,.T.);
#148=ORIENTED_EDGE('',*,*,#121,.T.);
#149=ORIENTED_EDGE('',*,*,#122,.T.);
#150=ORIENTED_EDGE('',*,*,#123,.T.);
#151=ORIENTED_EDGE('',*,*,#124,.T.);
#152=ORIENTED_EDGE('',*,*,#124,.F.);
#153=ORIENTED_EDGE('',*,*,#125,.T.);
#154=ORIENTED_EDGE('',*,*,#126,.F.);
#155=ORIENTED_EDGE('',*,*,#127,.F.);
#156=ORIENTED_EDGE('',*,*,#123,.F.);
#157=ORIENTED_EDGE('',*,*,#128,.F.);
#158=ORIENTED_EDGE('',*,*,#129,.T.);
#159=ORIENTED_EDGE('',*,*,#130,.F.);
#160=ORIENTED_EDGE('',*,*,#125,.F.);
#161=ORIENTED_EDGE('',*,*,#131,.F.);
#162=ORIENTED_EDGE('',*,*,#132,.T.);
#163=ORIENTED_EDGE('',*,*,#133,.T.);
#164=ORIENTED_EDGE('',*,*,#132,.F.);
#165=ORIENTED_EDGE('',*,*,#133,.F.);
#166=ORIENTED_EDGE('',*,*,#134,.F.);
#167=ORIENTED_EDGE('',*,*,#135,.F.);
#168=ORIENTED_EDGE('',*,*,#136,.T.);
#169=ORIENTED_EDGE('',*,*,#137,.T.);
#170=ORIENTED_EDGE('',*,*,#136,.F.);
#171=ORIENTED_EDGE('',*,*,#137,.F.);
#172=ORIENTED_EDGE('',*,*,#138,.F.);
#173=ORIENTED_EDGE('',*,*,#134,.T.);
#174=ORIENTED_EDGE('',*,*,#139,.T.);
#175=ORIENTED_EDGE('',*,*,#140,.F.);
#176=ORIENTED_EDGE('',*,*,#139,.F.);
#177=ORIENTED_EDGE('',*,*,#138,.T.);
#178=ORIENTED_EDGE('',*,*,#141,.T.);
#179=ORIENTED_EDGE('',*,*,#142,.F.);
#180=ORIENTED_EDGE('',*,*,#141,.F.);
#181=ORIENTED_EDGE('',*,*,#121,.F.);
#182=ORIENTED_EDGE('',*,*,#127,.T.);
#183=ORIENTED_EDGE('',*,*,#143,.F.);
#184=ORIENTED_EDGE('',*,*,#144,.F.);
#185=ORIENTED_EDGE('',*,*,#145,.F.);
#186=ORIENTED_EDGE('',*,*,#146,.F.);
#187=ORIENTED_EDGE('',*,*,#144,.T.);
#188=ORIENTED_EDGE('',*,*,#147,.F.);
#189=ORIENTED_EDGE('',*,*,#129,.F.);
#190=ORIENTED_EDGE('',*,*,#147,.T.);
#191=ORIENTED_EDGE('',*,*,#143,.T.);
#192=ORIENTED_EDGE('',*,*,#126,.T.);
#193=ORIENTED_EDGE('',*,*,#130,.T.);
#194=ORIENTED_EDGE('',*,*,#131,.T.);
#195=ORIENTED_EDGE('',*,*,#135,.T.);
#196=ORIENTED_EDGE('',*,*,#122,.F.);
#197=ORIENTED_EDGE('',*,*,#145,.T.);
#198=ORIENTED_EDGE('',*,*,#146,.T.);
#199=ORIENTED_EDGE('',*,*,#128,.T.);
#200=ORIENTED_EDGE('',*,*,#140,.T.);
#201=ORIENTED_EDGE('',*,*,#142,.T.);
#202=PLANE('',#238);
#203=PLANE('',#239);
#204=PLANE('',#240);
#205=PLANE('',#244);
#206=PLANE('',#249);
#207=PLANE('',#255);
#208=PLANE('',#256);
#209=PLANE('',#257);
#210=PLANE('',#258);
#211=ADVANCED_FACE('',(#33),#202,.T.);
#212=ADVANCED_FACE('',(#34),#203,.T.);
#213=ADVANCED_FACE('',(#35),#204,.T.);
#214=ADVANCED_FACE('',(#36),#29,.F.);
#215=ADVANCED_FACE('',(#37,#15),#205,.T.);
#216=ADVANCED_FACE('',(#38),#30,.F.);
#217=ADVANCED_FACE('',(#39,#16),#206,.T.);
#218=ADVANCED_FACE('',(#40),#31,.F.);
#219=ADVANCED_FACE('',(#41),#32,.F.);
#220=ADVANCED_FACE('',(#42),#207,.T.);
#221=ADVANCED_FACE('',(#43),#208,.T.);
#222=ADVANCED_FACE('',(#44,#17,#18),#209,.T.);
#223=ADVANCED_FACE('',(#45,#19,#20),#210,.F.);
#224=CLOSED_SHELL('',(#211,#212,#213,#214,#215,#216,#217,#218,#219,#220,
#221,#222,#223));
#225=DERIVED_UNIT_ELEMENT(#227,1.);
#226=DERIVED_UNIT_ELEMENT(#386,-3.);
#227=(
MASS_UNIT()
NAMED_UNIT(*)
SI_UNIT(.KILO.,.GRAM.)
);
#228=DERIVED_UNIT((#225,#226));
#229=MEASURE_REPRESENTATION_ITEM('density measure',
POSITIVE_RATIO_MEASURE(4510.),#228);
#230=PROPERTY_DEFINITION_REPRESENTATION(#235,#232);
#231=PROPERTY_DEFINITION_REPRESENTATION(#236,#233);
#232=REPRESENTATION('material name',(#234),#383);
#233=REPRESENTATION('density',(#229),#383);
#234=DESCRIPTIVE_REPRESENTATION_ITEM('Titanium','Titanium');
#235=PROPERTY_DEFINITION('material property','material name',#393);
#236=PROPERTY_DEFINITION('material property','density of part',#393);
#237=AXIS2_PLACEMENT_3D('',#322,#259,#260);
#238=AXIS2_PLACEMENT_3D('',#323,#261,#262);
#239=AXIS2_PLACEMENT_3D('',#332,#267,#268);
#240=AXIS2_PLACEMENT_3D('',#338,#272,#273);
#241=AXIS2_PLACEMENT_3D('',#344,#277,#278);
#242=AXIS2_PLACEMENT_3D('',#346,#279,#280);
#243=AXIS2_PLACEMENT_3D('',#349,#282,#283);
#244=AXIS2_PLACEMENT_3D('',#350,#284,#285);
#245=AXIS2_PLACEMENT_3D('',#352,#286,#287);
#246=AXIS2_PLACEMENT_3D('',#353,#288,#289);
#247=AXIS2_PLACEMENT_3D('',#355,#290,#291);
#248=AXIS2_PLACEMENT_3D('',#358,#293,#294);
#249=AXIS2_PLACEMENT_3D('',#359,#295,#296);
#250=AXIS2_PLACEMENT_3D('',#361,#297,#298);
#251=AXIS2_PLACEMENT_3D('',#362,#299,#300);
#252=AXIS2_PLACEMENT_3D('',#365,#302,#303);
#253=AXIS2_PLACEMENT_3D('',#366,#304,#305);
#254=AXIS2_PLACEMENT_3D('',#369,#307,#308);
#255=AXIS2_PLACEMENT_3D('',#370,#309,#310);
#256=AXIS2_PLACEMENT_3D('',#376,#314,#315);
#257=AXIS2_PLACEMENT_3D('',#379,#318,#319);
#258=AXIS2_PLACEMENT_3D('',#380,#320,#321);
#259=DIRECTION('axis',(0.,0.,1.));
#260=DIRECTION('refdir',(1.,0.,0.));
#261=DIRECTION('center_axis',(0.707106781186548,0.707106781186547,-8.92443400889654E-18));
#262=DIRECTION('ref_axis',(9.21938453060165E-17,-1.04814900917902E-16,-1.));
#263=DIRECTION('',(0.707106781186547,-0.707106781186548,1.39306220407992E-16));
#264=DIRECTION('',(9.21938453060164E-17,-1.04814900917902E-16,-1.));
#265=DIRECTION('',(-0.707106781186547,0.707106781186548,-1.39306220407992E-16));
#266=DIRECTION('',(-9.21938453060164E-17,1.04814900917902E-16,1.));
#267=DIRECTION('center_axis',(1.02348685082632E-15,1.,-1.04814900917902E-16));
#268=DIRECTION('ref_axis',(9.21938453060164E-17,-1.04814900917902E-16,-1.));
#269=DIRECTION('',(-1.,1.02348685082632E-15,-9.21938453060164E-17));
#270=DIRECTION('',(9.21938453060164E-17,-1.04814900917902E-16,-1.));
#271=DIRECTION('',(-1.,1.02348685082632E-15,-9.21938453060164E-17));
#272=DIRECTION('center_axis',(9.21938453060164E-17,-1.04814900917902E-16,
-1.));
#273=DIRECTION('ref_axis',(-1.02348685082632E-15,-1.,1.04814900917902E-16));
#274=DIRECTION('',(1.02348685082632E-15,1.,-1.04814900917902E-16));
#275=DIRECTION('',(-1.,1.02348685082632E-15,-9.21938453060164E-17));
#276=DIRECTION('',(-1.02348685082632E-15,-1.,1.04814900917902E-16));
#277=DIRECTION('center_axis',(1.,-1.02348685082632E-15,9.21938453060164E-17));
#278=DIRECTION('ref_axis',(9.21938453060163E-17,-1.04814900917902E-16,-1.));
#279=DIRECTION('center_axis',(1.,-1.02348685082632E-15,9.21938453060164E-17));
#280=DIRECTION('ref_axis',(9.21938453060163E-17,-1.04814900917902E-16,-1.));
#281=DIRECTION('',(1.,-1.02348685082632E-15,9.21938453060164E-17));
#282=DIRECTION('center_axis',(1.,-9.26537564031067E-16,-2.6862863769716E-16));
#283=DIRECTION('ref_axis',(-2.6862863769716E-16,-1.04814900917901E-16,-1.));
#284=DIRECTION('center_axis',(-1.,9.26537564031067E-16,2.6862863769716E-16));
#285=DIRECTION('ref_axis',(-2.6862863769716E-16,-1.04814900917901E-16,-1.));
#286=DIRECTION('center_axis',(-1.,9.26537564031067E-16,2.6862863769716E-16));
#287=DIRECTION('ref_axis',(-2.6862863769716E-16,-1.04814900917901E-16,-1.));
#288=DIRECTION('center_axis',(1.,-1.02348685082632E-15,9.21938453060164E-17));
#289=DIRECTION('ref_axis',(9.21938453060163E-17,-1.04814900917902E-16,-1.));
#290=DIRECTION('center_axis',(1.,-1.02348685082632E-15,9.21938453060164E-17));
#291=DIRECTION('ref_axis',(9.21938453060163E-17,-1.04814900917902E-16,-1.));
#292=DIRECTION('',(1.,-1.02348685082632E-15,9.21938453060164E-17));
#293=DIRECTION('center_axis',(1.,-9.26537564031067E-16,-2.6862863769716E-16));
#294=DIRECTION('ref_axis',(-2.6862863769716E-16,-1.04814900917901E-16,-1.));
#295=DIRECTION('center_axis',(-1.,9.26537564031067E-16,2.6862863769716E-16));
#296=DIRECTION('ref_axis',(-2.6862863769716E-16,-1.04814900917901E-16,-1.));
#297=DIRECTION('center_axis',(-1.,9.26537564031067E-16,2.6862863769716E-16));
#298=DIRECTION('ref_axis',(-2.6862863769716E-16,-1.04814900917901E-16,-1.));
#299=DIRECTION('center_axis',(1.,-9.14212931079745E-16,-2.35627913933695E-16));
#300=DIRECTION('ref_axis',(-2.35627913933695E-16,-1.04814900917901E-16,
-1.));
#301=DIRECTION('',(1.,-9.14212931079745E-16,-2.35627913933695E-16));
#302=DIRECTION('center_axis',(-1.,1.02348685082632E-15,-9.21938453060164E-17));
#303=DIRECTION('ref_axis',(9.21938453060163E-17,-1.04814900917901E-16,-1.));
#304=DIRECTION('center_axis',(1.,-9.14212931079745E-16,-3.44901833680266E-16));
#305=DIRECTION('ref_axis',(-3.44901833680266E-16,-1.04814900917901E-16,
-1.));
#306=DIRECTION('',(1.,-9.14212931079745E-16,-3.44901833680266E-16));
#307=DIRECTION('center_axis',(-1.,1.02348685082632E-15,-9.21938453060164E-17));
#308=DIRECTION('ref_axis',(9.21938453060163E-17,-1.04814900917901E-16,-1.));
#309=DIRECTION('center_axis',(-9.21938453060164E-17,1.04814900917902E-16,
1.));
#310=DIRECTION('ref_axis',(1.02348685082632E-15,1.,-1.04814900917902E-16));
#311=DIRECTION('',(1.02348685082632E-15,1.,-1.04814900917902E-16));
#312=DIRECTION('',(-1.,1.02348685082632E-15,-9.21938453060164E-17));
#313=DIRECTION('',(-1.02348685082632E-15,-1.,1.04814900917902E-16));
#314=DIRECTION('center_axis',(-1.02348685082632E-15,-1.,1.04814900917902E-16));
#315=DIRECTION('ref_axis',(-9.21938453060164E-17,1.04814900917902E-16,1.));
#316=DIRECTION('',(9.21938453060164E-17,-1.04814900917902E-16,-1.));
#317=DIRECTION('',(-9.21938453060164E-17,1.04814900917902E-16,1.));
#318=DIRECTION('center_axis',(-1.,1.02348685082632E-15,-9.21938453060164E-17));
#319=DIRECTION('ref_axis',(-1.02348685082632E-15,-1.,1.04814900917902E-16));
#320=DIRECTION('center_axis',(-1.,1.02348685082632E-15,-9.21938453060164E-17));
#321=DIRECTION('ref_axis',(-9.21938453060163E-17,1.04814900917902E-16,1.));
#322=CARTESIAN_POINT('',(0.,0.,0.));
#323=CARTESIAN_POINT('Origin',(1.57968794324957,0.158751711119149,-1.10343643478622));
#324=CARTESIAN_POINT('',(1.42093794324957,0.317501711119149,1.11906356521378));
#325=CARTESIAN_POINT('',(1.73843794324957,1.71111914903932E-6,1.11906356521378));
#326=CARTESIAN_POINT('',(2.25437544324957,-0.515935788880851,1.11906356521378));
#327=CARTESIAN_POINT('',(1.73843794324957,1.71111914815114E-6,-7.77093643478622));
#328=CARTESIAN_POINT('',(1.73843794324957,1.71111914903932E-6,-1.10343643478622));
#329=CARTESIAN_POINT('',(1.42093794324957,0.317501711119148,-7.77093643478622));
#330=CARTESIAN_POINT('',(1.57968794324957,0.158751711119149,-7.77093643478622));
#331=CARTESIAN_POINT('',(1.42093794324957,0.317501711119149,-1.10343643478622));
#332=CARTESIAN_POINT('Origin',(1.73843794324957,0.317501711119149,1.11906356521378));
#333=CARTESIAN_POINT('',(1.26345794324957,0.317501711119148,-7.77093643478622));
#334=CARTESIAN_POINT('',(1.73843794324957,0.317501711119148,-7.77093643478622));
#335=CARTESIAN_POINT('',(1.26345794324957,0.317501711119149,1.11906356521378));
#336=CARTESIAN_POINT('',(1.26345794324957,0.317501711119148,-7.77093643478622));
#337=CARTESIAN_POINT('',(1.73843794324957,0.317501711119149,1.11906356521378));
#338=CARTESIAN_POINT('Origin',(1.73843794324957,0.317501711119148,-7.77093643478622));
#339=CARTESIAN_POINT('',(1.73843794324957,-2.38124828888085,-7.77093643478622));
#340=CARTESIAN_POINT('',(1.73843794324957,-2.38124828888085,-7.77093643478622));
#341=CARTESIAN_POINT('',(1.26345794324957,-2.38124828888085,-7.77093643478622));
#342=CARTESIAN_POINT('',(1.73843794324957,-2.38124828888085,-7.77093643478622));
#343=CARTESIAN_POINT('',(1.26345794324957,-2.38124828888085,-7.77093643478622));
#344=CARTESIAN_POINT('Origin',(1.26345794324957,-1.11124828888085,-6.50093643478622));
#345=CARTESIAN_POINT('',(1.26345794324957,-1.11124828888085,-6.06532643478622));
#346=CARTESIAN_POINT('Origin',(1.26345794324957,-1.11124828888085,-6.50093643478622));
#347=CARTESIAN_POINT('',(1.42093794324957,-1.11124828888085,-6.06532643478622));
#348=CARTESIAN_POINT('',(1.26345794324957,-1.11124828888085,-6.06532643478622));
#349=CARTESIAN_POINT('Origin',(1.42093794324957,-1.11124828888085,-6.50093643478622));
#350=CARTESIAN_POINT('Origin',(1.42093794324957,-1.11124828888085,-6.50093643478622));
#351=CARTESIAN_POINT('',(1.42093794324957,-1.11124828888085,-6.22407643478622));
#352=CARTESIAN_POINT('Origin',(1.42093794324957,-1.11124828888085,-6.50093643478622));
#353=CARTESIAN_POINT('Origin',(1.26345794324957,-1.11124828888085,-0.150936434786225));
#354=CARTESIAN_POINT('',(1.26345794324957,-1.11124828888085,0.284673565213775));
#355=CARTESIAN_POINT('Origin',(1.26345794324957,-1.11124828888085,-0.150936434786225));
#356=CARTESIAN_POINT('',(1.42093794324957,-1.11124828888085,0.284673565213775));
#357=CARTESIAN_POINT('',(1.26345794324957,-1.11124828888085,0.284673565213775));
#358=CARTESIAN_POINT('Origin',(1.42093794324957,-1.11124828888085,-0.150936434786225));
#359=CARTESIAN_POINT('Origin',(1.42093794324957,-1.11124828888085,-0.150936434786225));
#360=CARTESIAN_POINT('',(1.42093794324957,-1.11124828888085,0.125923565213776));
#361=CARTESIAN_POINT('Origin',(1.42093794324957,-1.11124828888085,-0.150936434786224));
#362=CARTESIAN_POINT('Origin',(1.26345794324957,-1.11124828888085,-6.50093643478622));
#363=CARTESIAN_POINT('',(1.73843794324957,-1.11124828888085,-6.22407643478622));
#364=CARTESIAN_POINT('',(1.26345794324957,-1.11124828888085,-6.22407643478622));
#365=CARTESIAN_POINT('Origin',(1.73843794324957,-1.11124828888085,-6.50093643478622));
#366=CARTESIAN_POINT('Origin',(1.26345794324957,-1.11124828888085,-0.150936434786224));
#367=CARTESIAN_POINT('',(1.73843794324957,-1.11124828888085,0.125923565213776));
#368=CARTESIAN_POINT('',(1.26345794324957,-1.11124828888085,0.125923565213776));
#369=CARTESIAN_POINT('Origin',(1.73843794324957,-1.11124828888085,-0.150936434786224));
#370=CARTESIAN_POINT('Origin',(1.73843794324956,-2.38124828888085,1.11906356521378));
#371=CARTESIAN_POINT('',(1.26345794324956,-2.38124828888085,1.11906356521378));
#372=CARTESIAN_POINT('',(1.26345794324957,0.317501711119149,1.11906356521378));
#373=CARTESIAN_POINT('',(1.73843794324956,-2.38124828888085,1.11906356521378));
#374=CARTESIAN_POINT('',(1.73843794324956,-2.38124828888085,1.11906356521378));
#375=CARTESIAN_POINT('',(1.73843794324957,0.317501711119149,1.11906356521378));
#376=CARTESIAN_POINT('Origin',(1.73843794324957,-2.38124828888085,-7.77093643478622));
#377=CARTESIAN_POINT('',(1.73843794324956,-2.38124828888085,1.11906356521378));
#378=CARTESIAN_POINT('',(1.26345794324956,-2.38124828888085,1.11906356521378));
#379=CARTESIAN_POINT('Origin',(1.26345794324957,-1.03187328888085,-3.32593643478622));
#380=CARTESIAN_POINT('Origin',(1.73843794324957,-1.03187328888085,-3.32593643478622));
#381=UNCERTAINTY_MEASURE_WITH_UNIT(LENGTH_MEASURE(0.001),#385,
'DISTANCE_ACCURACY_VALUE',
'Maximum model space distance between geometric entities at asserted c
onnectivities');
#382=UNCERTAINTY_MEASURE_WITH_UNIT(LENGTH_MEASURE(0.001),#385,
'DISTANCE_ACCURACY_VALUE',
'Maximum model space distance between geometric entities at asserted c
onnectivities');
#383=(
GEOMETRIC_REPRESENTATION_CONTEXT(3)
GLOBAL_UNCERTAINTY_ASSIGNED_CONTEXT((#381))
GLOBAL_UNIT_ASSIGNED_CONTEXT((#385,#387,#388))
REPRESENTATION_CONTEXT('','3D')
);
#384=(
GEOMETRIC_REPRESENTATION_CONTEXT(3)
GLOBAL_UNCERTAINTY_ASSIGNED_CONTEXT((#382))
GLOBAL_UNIT_ASSIGNED_CONTEXT((#385,#387,#388))
REPRESENTATION_CONTEXT('','3D')
);
#385=(
LENGTH_UNIT()
NAMED_UNIT(*)
SI_UNIT(.CENTI.,.METRE.)
);
#386=(
LENGTH_UNIT()
NAMED_UNIT(*)
SI_UNIT($,.METRE.)
);
#387=(
NAMED_UNIT(*)
PLANE_ANGLE_UNIT()
SI_UNIT($,.RADIAN.)
);
#388=(
NAMED_UNIT(*)
SI_UNIT($,.STERADIAN.)
SOLID_ANGLE_UNIT()
);
#389=SHAPE_DEFINITION_REPRESENTATION(#390,#391);
#390=PRODUCT_DEFINITION_SHAPE('',$,#393);
#391=SHAPE_REPRESENTATION('',(#237),#383);
#392=PRODUCT_DEFINITION_CONTEXT('part definition',#397,'design');
#393=PRODUCT_DEFINITION('temp_body','Untitled',#394,#392);
#394=PRODUCT_DEFINITION_FORMATION('',$,#399);
#395=PRODUCT_RELATED_PRODUCT_CATEGORY('Untitled','Untitled',(#399));
#396=APPLICATION_PROTOCOL_DEFINITION('international standard',
'automotive_design',2009,#397);
#397=APPLICATION_CONTEXT(
'Core Data for Automotive Mechanical Design Process');
#398=PRODUCT_CONTEXT('part definition',#397,'mechanical');
#399=PRODUCT('temp_body','Untitled',$,(#398));
#400=PRESENTATION_STYLE_ASSIGNMENT((#402));
#401=PRESENTATION_STYLE_ASSIGNMENT((#403));
#402=SURFACE_STYLE_USAGE(.BOTH.,#404);
#403=SURFACE_STYLE_USAGE(.BOTH.,#405);
#404=SURFACE_SIDE_STYLE('',(#406));
#405=SURFACE_SIDE_STYLE('',(#407));
#406=SURFACE_STYLE_FILL_AREA(#408);
#407=SURFACE_STYLE_FILL_AREA(#409);
#408=FILL_AREA_STYLE('Titanium - Polished',(#410));
#409=FILL_AREA_STYLE('Opaque(160,160,160)',(#411));
#410=FILL_AREA_STYLE_COLOUR('Titanium - Polished',#412);
#411=FILL_AREA_STYLE_COLOUR('Opaque(160,160,160)',#413);
#412=COLOUR_RGB('Titanium - Polished',0.749019607843137,0.729411764705882,
0.701960784313725);
#413=COLOUR_RGB('Opaque(160,160,160)',0.627450980392157,0.627450980392157,
0.627450980392157);
ENDSEC;
END-ISO-10303-21;
